<svg xmlns="http://www.w3.org/2000/svg" xmlns:xlink="http://www.w3.org/1999/xlink" version="1.1" x="0px" y="0px" viewBox="0 0 100 100" style="enable-background:new 0 0 100 100;" xml:space="preserve"><g><path d="M23.42,24.73c0.05-3.84,0.02-6.97,2.34-8.88c5.82-4.8,15.34-6.72,25.98-6.72c12.08,0,19.98,3.07,24.72,6.48   c2.55,1.84,2.55,4.89,2.53,9.08c-0.03,4.53,0,44.69,0,50.81c0,1.76,0.22,5.7-0.65,6.84c-4.08,5.4-14.48,7.8-22.64,8.28   c-7.39,0.43-14.42,0.02-21.4-2.11c-5.28-1.61-9.14-3.98-10.68-7.45c-0.48-1.08-0.2-4.4-0.2-5.2C23.4,69.11,23.27,37.53,23.42,24.73   z M76.69,39.9c-4.19,3.71-11.2,5.25-16.35,6.05c-5.54,0.86-15,0.8-20.4-0.34c-3.6-0.76-9-1.36-14.24-5.71c0,4.29,0,7.49,0,10.08   c0,3.07,5.93,6.32,12.46,7.67c9.66,2,17.7,1.4,25.5,0.1c4.66-0.6,12.76-4.16,12.94-7.22C76.81,46.98,76.69,42.81,76.69,39.9z    M25.7,64.72c0.2,4.74,10.29,7.18,12.71,7.7c7.91,1.68,18.43,1.66,25.76-0.03c6.93-1.6,12.42-4.24,12.5-7.67   c0.09-4.2,0-6.25,0-10.11c-3.3,3.01-9.72,5.17-14.66,5.83c-8.4,1.14-16.88,1.07-24.01-0.45c-2.76-0.59-9.62-2.51-12.3-5.41   C25.7,58.12,25.53,60.71,25.7,64.72z M25.7,25.18c0,2.15,0,7.31,0,10.4c0,2.91,6.72,6.06,12.14,7.23   c6.66,1.44,15.43,2.08,23.61,0.61c7.17-1.28,14.31-4.02,15.02-7.27c0.32-1.46,0.21-6.35,0.21-10.97c-5.23,4.93-18.4,6.85-25.6,6.64   C41.87,31.55,31.79,30.36,25.7,25.18z M25.71,20.33c-0.51,5.65,14.43,9.15,25.48,9.15c14.15,0,25.92-4.83,25.49-9.2   c-0.5-5.12-13.64-8.75-26-8.75C39.55,11.53,26.18,15.07,25.71,20.33z M76.66,69.36c-4.64,4.31-11.95,5.35-16.8,6.14   c-6.12,1-16.19,0.56-21.35-0.63c-5.17-1.2-8.53-2.09-12.8-5.51c0,2.38,0,5.02,0,10.1c0,2.56,4.46,5.84,9.66,7   c8.75,1.95,15.1,2.62,23.92,1.52c6.72-0.84,17.2-3.96,17.36-8.36C76.79,76.14,76.66,71.97,76.66,69.36z"></path><path d="M63.88,19.99c0,1.15-0.29,1.09-3.36,0.8c-0.93,2.93-2.27,2.33-2.48,0c-0.16-1.81-2.21-1.65-2.72-1.44   c-0.83,0.35-0.79,1.69-2.13,3.17c-1.37,1.51-5.83,1.31-6.85-0.35c-1.04-1.68-1.77-0.86-3.74-0.98c-1.94-0.12-2.35-0.19-2.31-1.2   c0.02-0.62,0.42-0.94,1.79-0.94c1.28,0,1.93-0.02,2.4-1.2c0.51-1.26,2.35-2.05,3.27,0.43c1.1,2.96,3.88,3.36,5.56-0.35   c0.79-1.75,4.19-2.18,5.52-0.06c1.08,1.73,1.58,0.98,3.18,1.05C63.1,18.97,63.88,18.92,63.88,19.99z"></path></g></svg>