<?xml version="1.0" encoding="UTF-8"?>
<svg width="1200pt" height="1200pt" version="1.1" viewBox="0 0 1200 1200" xmlns="http://www.w3.org/2000/svg">
 <g fill="#fff">
  <path d="m600.9 169.65c-114.13 0-223.59 45.344-304.3 126.05-80.707 80.707-126.05 190.17-126.05 304.3s45.34 223.6 126.05 304.3c80.707 80.703 190.17 126.05 304.3 126.05 114.14 0 223.6-45.344 304.3-126.05 80.707-80.707 126.05-190.17 126.05-304.3-0.11719-114.1-45.496-223.49-126.18-304.17-80.68-80.68-190.07-126.06-304.17-126.18zm0 815.7v0.003906c-102.2 0-200.21-40.602-272.48-112.87-72.27-72.27-112.87-170.28-112.87-272.48s40.598-200.21 112.87-272.48c72.266-72.266 170.28-112.87 272.48-112.87 102.2 0 200.22 40.602 272.48 112.87 72.27 72.27 112.87 170.28 112.87 272.48-0.11719 102.16-40.758 200.11-113 272.35-72.242 72.242-170.19 112.88-272.36 113z"/>
  <path d="m622.95 521.55h-82.199v40.801h36.301v152.4h-36.301v40.801h118.5v-40.801h-36.301z"/>
  <path d="m598.35 469.8c7.3828 0.11719 14.492-2.8125 19.648-8.1016 5.375-5.1094 8.3633-12.234 8.25-19.648 0.15234-7.4219-2.8438-14.562-8.25-19.652-5.2031-5.2031-12.293-8.0703-19.648-7.9492-7.5234-0.21875-14.781 2.7812-19.953 8.25-5.082 5.1875-7.9297 12.164-7.9297 19.426s2.8477 14.238 7.9297 19.426c5.1836 5.4492 12.434 8.4492 19.953 8.25z"/>
 </g>
</svg>
