<?xml version="1.0" encoding="UTF-8"?>
<svg width="1200pt" height="1200pt" version="1.1" viewBox="0 0 1200 1200" xmlns="http://www.w3.org/2000/svg">
 <path d="m600 931.44c87.902 0 172.21-34.922 234.36-97.078s97.078-146.46 97.078-234.36-34.922-172.21-97.078-234.36-146.46-97.078-234.36-97.078-172.21 34.922-234.36 97.078-97.078 146.46-97.078 234.36c-0.019532 58.188 15.281 115.35 44.371 165.75 29.086 50.395 70.93 92.238 121.32 121.32 50.395 29.09 107.56 44.391 165.75 44.371zm0-619.44c76.383 0 149.64 30.344 203.65 84.352 54.008 54.012 84.352 127.27 84.352 203.65s-30.344 149.64-84.352 203.65c-54.012 54.008-127.27 84.352-203.65 84.352s-149.64-30.344-203.65-84.352c-54.008-54.012-84.352-127.27-84.352-203.65s30.344-149.64 84.352-203.65c54.012-54.008 127.27-84.352 203.65-84.352zm235.44 294.24c0.019532-40.793-10.703-80.875-31.086-116.21-20.387-35.332-49.715-64.68-85.039-85.082-35.328-20.402-75.402-31.145-116.2-31.145v464.76c61.613 0 120.71-24.477 164.27-68.043 43.57-43.57 68.047-102.66 68.047-164.28zm-238.56 372h-0.003906c-5.7578 0-11.285 2.2891-15.355 6.3633-4.0742 4.0742-6.3633 9.5977-6.3633 15.359v148.32c0 7.7578 4.1406 14.93 10.859 18.809s15 3.8789 21.719 0c6.7227-3.8789 10.863-11.051 10.863-18.809v-148.68c0-5.7617-2.2891-11.285-6.3633-15.359-4.0742-4.0742-9.5977-6.3633-15.359-6.3633zm298.8-108h-0.003906c-5.5625-3.9102-12.641-4.9883-19.117-2.9102-6.4766 2.0742-11.609 7.0625-13.863 13.48-2.2539 6.418-1.375 13.52 2.3789 19.191l105.12 105.12c5.5859 4.9258 13.305 6.6445 20.453 4.5586 7.1484-2.0859 12.727-7.6914 14.785-14.848s0.30859-14.867-4.6367-20.434zm82.199-266.28-0.003906 0.003907c0 5.7578 2.2891 11.285 6.3633 15.355 4.0742 4.0742 9.5977 6.3633 15.359 6.3633h148.68c7.7578 0 14.93-4.1406 18.809-10.859s3.8789-15 0-21.719c-3.8789-6.7227-11.051-10.863-18.809-10.863h-148.68c-5.6211-0.003906-11.02 2.1719-15.07 6.0625-4.0508 3.8945-6.4336 9.207-6.6523 14.82zm-77.883-269.04 105.12-105.12c4.9258-5.5859 6.6445-13.305 4.5586-20.453-2.0859-7.1484-7.6914-12.727-14.848-14.785s-14.867-0.30859-20.434 4.6367l-105.12 105.12h0.003906c-4.9258 5.5859-6.6484 13.305-4.5625 20.453 2.0898 7.1445 7.6914 12.727 14.848 14.785s14.867 0.30859 20.434-4.6367zm-297-112.8c5.7617 0 11.285-2.2891 15.359-6.3633 4.0742-4.0742 6.3594-9.5977 6.3594-15.359v-148.68c0-7.7578-4.1367-14.93-10.859-18.809-6.7188-3.8789-15-3.8789-21.719 0-6.7227 3.8789-10.859 11.051-10.859 18.809v148.68c0 5.7812 2.3047 11.324 6.4023 15.402 4.1016 4.0781 9.6562 6.3516 15.438 6.3203zm-298.8 108c5.582 4.3008 12.902 5.625 19.641 3.5547 6.7344-2.0703 12.047-7.2773 14.25-13.973 2.1992-6.6914 1.0195-14.039-3.168-19.703l-105.12-105.12c-3.9805-4.4766-9.6289-7.1094-15.617-7.2812-5.9883-0.16797-11.781 2.1406-16.008 6.3828-4.2266 4.2422-6.5117 10.043-6.3203 16.031 0.19531 5.9844 2.8516 11.625 7.3438 15.59zm-252 288h148.2c7.7617 0 14.934-4.1406 18.812-10.859 3.8789-6.7227 3.8789-15 0-21.723-3.8789-6.7188-11.051-10.859-18.812-10.859h-148.68c-7.7578 0-14.93 4.1406-18.809 10.859-3.8789 6.7227-3.8789 15 0 21.723 3.8789 6.7188 11.051 10.859 18.809 10.859zm264 240c-5.7695-0.042969-11.309 2.25-15.359 6.3594l-105.12 105.12c-4.1016 4.0547-6.4141 9.5859-6.4141 15.359 0 5.7695 2.3125 11.301 6.4141 15.359 4.0898 4.043 9.6094 6.3125 15.359 6.3125 5.7539 0 11.273-2.2695 15.363-6.3125l105.12-105.24-0.003906-0.003906c4.0195-4.0781 6.2656-9.582 6.2461-15.312-0.019532-5.7266-2.3008-11.215-6.3477-15.27-4.0469-4.0547-9.5273-6.3438-15.258-6.375z" fill="#fff"/>
</svg>
