<?xml version="1.0" encoding="UTF-8"?>
<svg width="1200pt" height="1200pt" version="1.1" viewBox="0 0 1200 1200" xmlns="http://www.w3.org/2000/svg">
 <g fill="#fff">
  <path d="m281.04 296.76c0.60156-46.078 0.23828-83.641 28.078-106.56 69.84-57.602 184.08-80.641 311.76-80.641 144.96 0 239.76 36.84 296.64 77.762 30.602 22.078 30.602 58.68 30.359 108.96-0.35938 54.359 0 536.28 0 609.72 0 21.121 2.6406 68.398-7.8008 82.078-48.961 64.801-173.76 93.602-271.68 99.359-88.68 5.1602-173.04 0.23828-256.8-25.32-63.359-19.32-109.68-47.762-128.16-89.398-5.7617-12.961-2.3984-52.801-2.3984-62.398-0.23828-81.004-1.8008-459.96 0-613.56zm639.24 182.04c-50.281 44.52-134.4 63-196.2 72.602-66.48 10.32-180 9.6016-244.8-4.0781-43.199-9.1211-108-16.32-170.88-68.52v120.96c0 36.84 71.16 75.84 149.52 92.039 115.92 24 212.4 16.801 306 1.1992 55.922-7.1992 153.12-49.922 155.28-86.641 2.5156-42.602 1.0781-92.645 1.0781-127.56zm-611.88 297.84c2.3984 56.879 123.48 86.16 152.52 92.398 94.922 20.16 221.16 19.922 309.12-0.35937 83.16-19.199 149.04-50.879 150-92.039 1.0781-50.398 0-75 0-121.32-39.602 36.121-116.64 62.039-175.92 69.961-100.8 13.68-202.56 12.84-288.12-5.3984-33.121-7.0781-115.44-30.121-147.6-64.922 0.003907 42.48-2.0352 73.559 0.003907 121.68zm0-474.48v124.8c0 34.922 80.641 72.719 145.68 86.762 79.922 17.281 185.16 24.961 283.32 7.3203 86.039-15.359 171.72-48.238 180.24-87.238 3.8398-17.52 2.5195-76.199 2.5195-131.64-62.762 59.16-220.8 82.199-307.2 79.68-110.52-3.2422-231.48-17.523-304.56-79.684zm0.12109-58.199c-6.1211 67.801 173.16 109.8 305.76 109.8 169.8 0 311.04-57.961 305.88-110.4-6-61.441-163.68-105-312-105-133.56-0.003906-294 42.477-299.64 105.6zm611.4 588.36c-55.68 51.719-143.4 64.199-201.6 73.68-73.441 12-194.28 6.7188-256.2-7.5586-62.039-14.398-102.36-25.078-153.6-66.121v121.2c0 30.719 53.52 70.078 115.92 84 105 23.398 181.2 31.441 287.04 18.238 80.641-10.078 206.4-47.52 208.32-100.32 1.6797-41.758 0.12109-91.797 0.12109-123.12z"/>
  <path d="m766.56 239.88c0 13.801-3.4805 13.078-40.32 9.6016-11.16 35.16-27.238 27.961-29.762 0-1.9219-21.719-26.52-19.801-32.641-17.281-9.9609 4.1992-9.4805 20.281-25.559 38.039-16.441 18.121-69.961 15.719-82.199-4.1992-12.48-20.16-21.238-10.32-44.879-11.762-23.281-1.4414-28.199-2.2812-27.719-14.398 0.23828-7.4414 5.0391-11.281 21.48-11.281 15.359 0 23.16-0.23828 28.801-14.398 6.1211-15.121 28.199-24.602 39.238 5.1602 13.199 35.52 46.559 40.32 66.719-4.1992 9.4805-21 50.281-26.16 66.238-0.71875 12.961 20.762 18.961 11.762 38.16 12.602 13.082 0.59766 22.441-0.003907 22.441 12.836z"/>
 </g>
</svg>
