<?xml version="1.0" encoding="UTF-8"?>
<svg width="1200pt" height="1200pt" version="1.1" viewBox="0 0 1200 1200" xmlns="http://www.w3.org/2000/svg">
 <g fill="#fff">
  <path d="m761.07 597.84c-24.348 0-44.137 19.789-44.137 44.137 0 24.348 19.789 44.016 44.137 44.016 24.348 0 44.016-19.668 44.016-44.016 0.003906-24.348-19.664-44.137-44.016-44.137z"/>
  <path d="m200.27 607.95c-8.8086-17.879-13.656-39.961-13.262-60.648 0.13281-9.8867 2.0625-13.824 3.7695-15.504 1.9805-1.9922 6.1094-3.0117 10.586-2.4102 1.7383 0.20313 7.5352 1.1406 9.1445 4.8828 3.2539 7.6328 12.07 11.16 19.68 7.9062 7.6211-3.2539 11.16-12.059 7.9219-19.68-5.4492-12.77-17.594-21.133-33.277-22.922-13.754-1.6445-26.652 2.3867-35.16 10.895-12.336 12.098-12.574 30.406-12.66 36.336-0.48047 25.609 5.3281 52.031 16.355 74.387 2.6172 5.293 7.9336 8.3633 13.465 8.3633 2.2305 0 4.4883-0.49219 6.625-1.5469 7.4219-3.6445 10.484-12.633 6.8125-20.059z"/>
  <path d="m226.57 673.52c5.2188 0 10.297-2.7344 13.055-7.5977 4.0938-7.2109 1.5586-16.355-5.6406-20.449-4.4766-2.543-8.7461-5.6172-12.695-9.1445-6.1914-5.5195-15.672-5.0039-21.18 1.2109-5.5078 6.1797-4.9805 15.66 1.1992 21.18 5.5312 4.9336 11.543 9.2539 17.855 12.84 2.3555 1.3242 4.8984 1.9609 7.4062 1.9609z"/>
  <path d="m1073.2 364.44c-40.309-46.922-70.391-84.047-94.559-113.88-52.441-64.727-78.758-97.223-123.21-123.02-76.633-44.438-210.04-79.02-410.32 8.7734l-3.8555 1.6875c-145.08 62.832-228.05 173.22-266.32 237.41-3.4219-0.70703-6.8398-1.3906-10.262-1.7773-32.41-3.5742-61.57 9.1094-78.121 34.094-9.4062 14.41-14.062 30.863-17.074 43.586-24.254 101.98-3.5273 241.48 99.238 306.73 7.7891 4.9688 15.875 9.1797 24.035 12.996 40.754 81.215 104.79 136.67 195.84 169.3 63.109 22.621 109.12 46.906 144.76 76.441 28.223 23.398 147 94.391 218.04 100.75 5.6992 0.49219 11.363 0.74219 17.004 0.74219 51.07 0 98.879-19.922 127.61-53.953 0.070312-0.085937 0.12109-0.19141 0.19141-0.28906 45.672-7.332 88.754-24.684 125.22-50.785 44.699-31.957 50.641-98.566 33.539-144.98-8.4609-23.039-22.105-44.004-35.293-64.262-4.6328-7.1172-9.0977-13.969-13.211-20.723 2.7461-2.7617 5.3164-5.3984 8.0039-8.1719 3.1914-3.2773 6.5508-6.7578 10.68-10.859 16.609-16.621 29.207-36.07 37.441-57.793l13.199-34.777c5.4844-14.449 7.2734-29.641 5.5078-44.555 27.422-27.742 58.402-71.102 58.754-125.68 0.41016-58.328-35.301-100.11-66.836-137zm-968.68 95.172c2.4844-10.5 5.8789-22.535 12.133-32.113 8.8789-13.414 25.332-20.281 44.051-18.086 5.9648 0.66016 12.023 2.0898 18.121 4.2461 20.734 7.2617 41.785 23.148 59.328 44.762 27.371 36.562 110.48 163.04 68.734 298.66-24.781 1.1992-57.828-1.1523-91.656-15.289-9.2656-3.793-18.395-8.5547-27.168-14.148-87.922-55.809-104.94-178.05-83.543-268.03zm937.59 199.25-11.195 29.496c2.1016-19.332-6.6133-36.949-22.152-41.82-18.348-5.8789-39.109 8.2812-46.414 31.43-7.3203 23.27 1.5586 46.777 19.906 52.535 10.43 3.2656 21.574 0 30.684-7.5703-4.0078 5.543-8.3398 10.895-13.273 15.828-4.2461 4.2461-7.7383 7.8359-11.027 11.23-5.3281 5.4844-10.141 10.441-17.172 17.102-5.9414 5.6289-7.332 14.531-3.4062 21.707 6.4453 11.762 14.062 23.484 21.445 34.812 12.109 18.59 24.625 37.812 31.68 57.047 8.9766 24.348 9.2266 55.367-1.5586 78.887-113.79 3.0586-173.32-24.348-226.52-66.516-5.5312-4.3906-13.402-4.3086-18.863 0.19141l-18.59 15.348c-6.3828 5.2695-7.2852 14.734-2.0156 21.121 5.2695 6.4062 14.746 7.2852 21.121 2.0156l9.3477-7.7266c45.324 34.055 103.78 63.602 207.84 65.676-33.07 21.625-71.664 35.641-112.41 40.477-27.695 3.3242-54.828 2.1719-80.711-3.4453-27.312-5.8203-52.129-17.844-71.832-34.824-29.844-25.477-46.164-56.785-48.492-93.098-2.832-44.09 16.043-93.098 50.496-131.11 2.1836-2.3984 3.3125-5.2695 3.9609-8.2188 1.2227-2.4375 1.9688-5.1484 1.9688-8.0508 0-8.6406-6.1211-15.84-14.242-17.594-42.238-10.223-90.324-41.699-96.457-86.891-3.875-28.836 11.438-54.852 20.902-67.789 28.297-38.617 71.148-59.879 117.56-58.441 48.949 1.5586 94.512 27.984 122.07 70.68 0.82813 2.9766 2.1367 5.832 4.5 8.1367 7.1406 6.9492 18.527 6.7695 25.453-0.34766 29.566-30.395 59.34-34.441 99.562-13.621 14.734 7.6797 25.57 21.371 29.785 37.727 3.1289 11.707 2.457 24.031-1.9492 35.621z"/>
  <path d="m908.41 784.09c-3.2031-7.6445-11.988-11.242-19.621-8.0625-7.6445 3.1914-11.258 11.977-8.0508 19.621l7.3203 17.52c2.3984 5.7461 7.9805 9.2266 13.848 9.2266 1.9336 0 3.8867-0.37109 5.7734-1.1641 7.6445-3.1914 11.258-11.977 8.0508-19.621z"/>
  <path d="m936.77 778.52c-7.7266 3-11.555 11.688-8.5664 19.402l5.7617 14.867c2.3047 5.9531 7.9805 9.5898 13.992 9.5898 1.8008 0 3.6367-0.32422 5.4102-1.0078 7.7266-3 11.555-11.688 8.5664-19.402l-5.7617-14.867c-2.9883-7.7422-11.676-11.559-19.402-8.582z"/>
 </g>
</svg>
