<svg xmlns="http://www.w3.org/2000/svg" xmlns:xlink="http://www.w3.org/1999/xlink" version="1.1" x="0px" y="0px" viewBox="0 0 100 100" style="enable-background:new 0 0 100 100;" xml:space="preserve"><g><path d="M63.423,49.82c-2.029,0-3.678,1.649-3.678,3.678s1.649,3.668,3.678,3.668s3.668-1.639,3.668-3.668   S65.452,49.82,63.423,49.82z"></path><path d="M16.689,50.662c-0.734-1.49-1.138-3.33-1.105-5.054c0.011-0.824,0.172-1.152,0.314-1.292   c0.165-0.166,0.509-0.251,0.882-0.201c0.145,0.017,0.628,0.095,0.762,0.407c0.271,0.636,1.006,0.93,1.64,0.659   c0.635-0.271,0.93-1.005,0.66-1.64c-0.454-1.064-1.466-1.761-2.773-1.91c-1.146-0.137-2.221,0.199-2.93,0.908   c-1.028,1.008-1.048,2.534-1.055,3.028c-0.04,2.134,0.444,4.336,1.363,6.199c0.218,0.441,0.661,0.697,1.122,0.697   c0.186,0,0.374-0.041,0.552-0.129C16.74,52.03,16.995,51.281,16.689,50.662z"></path><path d="M18.881,56.127c0.435,0,0.858-0.228,1.088-0.633c0.341-0.601,0.13-1.363-0.47-1.704c-0.373-0.212-0.729-0.468-1.058-0.762   c-0.516-0.46-1.306-0.417-1.765,0.101c-0.459,0.515-0.415,1.305,0.1,1.765c0.461,0.411,0.962,0.771,1.488,1.07   C18.46,56.074,18.672,56.127,18.881,56.127z"></path><path d="M89.43,30.37c-3.359-3.91-5.866-7.004-7.88-9.49c-4.37-5.394-6.563-8.102-10.268-10.252   c-6.386-3.703-17.503-6.585-34.193,0.731L36.768,11.5c-12.09,5.236-19.004,14.435-22.193,19.784   c-0.285-0.059-0.57-0.116-0.855-0.148c-2.701-0.298-5.131,0.759-6.51,2.841c-0.784,1.201-1.172,2.572-1.423,3.632   c-2.021,8.498-0.294,20.123,8.27,25.561c0.649,0.414,1.323,0.765,2.003,1.083c3.396,6.768,8.732,11.389,16.32,14.108   c5.259,1.885,9.093,3.909,12.063,6.37c2.352,1.95,12.25,7.866,18.17,8.396c0.475,0.041,0.947,0.062,1.417,0.062   c4.256,0,8.24-1.66,10.634-4.496c0.006-0.007,0.01-0.016,0.016-0.024c3.806-0.611,7.396-2.057,10.435-4.232   c3.725-2.663,4.22-8.214,2.795-12.082c-0.705-1.92-1.842-3.667-2.941-5.355c-0.386-0.593-0.758-1.164-1.101-1.727   c0.229-0.23,0.443-0.45,0.667-0.681c0.266-0.273,0.546-0.563,0.89-0.905c1.384-1.385,2.434-3.006,3.12-4.816l1.1-2.898   c0.457-1.204,0.606-2.47,0.459-3.713c2.285-2.312,4.867-5.925,4.896-10.473C95.034,36.926,92.058,33.444,89.43,30.37z    M8.707,38.301c0.207-0.875,0.49-1.878,1.011-2.676c0.74-1.118,2.111-1.69,3.671-1.507c0.497,0.055,1.002,0.174,1.51,0.354   c1.728,0.605,3.482,1.929,4.944,3.73c2.281,3.047,9.207,13.587,5.728,24.888c-2.065,0.1-4.819-0.096-7.638-1.274   c-0.772-0.316-1.533-0.713-2.264-1.179C8.342,55.986,6.924,45.799,8.707,38.301z M86.84,54.905l-0.933,2.458   c0.175-1.611-0.551-3.079-1.846-3.485c-1.529-0.49-3.259,0.69-3.868,2.619c-0.61,1.939,0.13,3.898,1.659,4.378   c0.869,0.272,1.798,0,2.557-0.631c-0.334,0.462-0.695,0.908-1.106,1.319c-0.354,0.354-0.645,0.653-0.919,0.936   c-0.444,0.457-0.845,0.87-1.431,1.425c-0.495,0.469-0.611,1.211-0.284,1.809c0.537,0.98,1.172,1.957,1.787,2.901   c1.009,1.549,2.052,3.151,2.64,4.754c0.748,2.029,0.769,4.614-0.13,6.574c-9.482,0.255-14.443-2.029-18.877-5.543   c-0.461-0.366-1.117-0.359-1.572,0.016l-1.549,1.279c-0.532,0.439-0.607,1.228-0.168,1.76c0.439,0.534,1.229,0.607,1.76,0.168   l0.779-0.644c3.777,2.838,8.648,5.3,17.32,5.473c-2.756,1.802-5.972,2.97-9.368,3.373c-2.308,0.277-4.569,0.181-6.726-0.287   c-2.276-0.485-4.344-1.487-5.986-2.902c-2.487-2.123-3.847-4.732-4.041-7.758c-0.236-3.674,1.337-7.758,4.208-10.926   c0.182-0.2,0.276-0.439,0.33-0.685c0.102-0.203,0.164-0.429,0.164-0.671c0-0.72-0.51-1.32-1.187-1.466   c-3.52-0.852-7.527-3.475-8.038-7.241c-0.323-2.403,0.953-4.571,1.742-5.649c2.358-3.218,5.929-4.99,9.797-4.87   c4.079,0.13,7.876,2.332,10.173,5.89c0.069,0.248,0.178,0.486,0.375,0.678c0.595,0.579,1.544,0.564,2.121-0.029   c2.464-2.533,4.945-2.87,8.297-1.135c1.228,0.64,2.131,1.781,2.482,3.144C87.263,52.912,87.207,53.939,86.84,54.905z"></path><path d="M75.701,65.341c-0.267-0.637-0.999-0.937-1.635-0.672c-0.637,0.266-0.938,0.998-0.671,1.635l0.61,1.46   c0.2,0.479,0.665,0.769,1.154,0.769c0.161,0,0.324-0.031,0.481-0.097c0.637-0.266,0.938-0.998,0.671-1.635L75.701,65.341z"></path><path d="M78.064,64.877c-0.644,0.25-0.963,0.974-0.714,1.617l0.48,1.239c0.192,0.496,0.665,0.799,1.166,0.799   c0.15,0,0.303-0.027,0.451-0.084c0.644-0.25,0.963-0.974,0.714-1.617l-0.48-1.239C79.432,64.947,78.708,64.629,78.064,64.877z"></path></g></svg>