<svg xmlns="http://www.w3.org/2000/svg" data-name="Layer 1" viewBox="0 0 80 80" x="0px" y="0px"><title>76_BO_info</title><path d="M40.06,11.31A28.69,28.69,0,1,0,68.75,40,28.72,28.72,0,0,0,40.06,11.31Zm0,54.38A25.69,25.69,0,1,1,65.75,40,25.72,25.72,0,0,1,40.06,65.69Z"></path><polygon points="41.53 34.77 36.05 34.77 36.05 37.49 38.47 37.49 38.47 47.65 36.05 47.65 36.05 50.37 43.95 50.37 43.95 47.65 41.53 47.65 41.53 34.77"></polygon><path d="M39.89,31.32a1.79,1.79,0,0,0,1.31-.54,1.77,1.77,0,0,0,.55-1.31,1.75,1.75,0,0,0-.55-1.31,1.81,1.81,0,0,0-1.31-.53,1.76,1.76,0,0,0-1.33.55,1.85,1.85,0,0,0,0,2.59A1.77,1.77,0,0,0,39.89,31.32Z"></path></svg>